<?xml version="1.0" encoding="UTF-8"?>
<svg xmlns="http://www.w3.org/2000/svg" viewBox="0 0 886.88 257.78">
  <defs>
    <style>
      .cls-1 {
        fill: #fff;
      }

      .cls-2 {
        isolation: isolate;
      }

      .cls-3 {
        mix-blend-mode: screen;
      }
    </style>
  </defs>
  <g class="cls-2">
    <g id="Layer_2" data-name="Layer 2">
      <g id="Layer_1-2" data-name="Layer 1">
        <g>
          <g class="cls-3">
            <g>
              <g>
                <path class="cls-1" d="M87.14,126.91l-67,8.91v30.44s60.29-8.01,60.29-8.01v20.76s-60.29,8.01-60.29,8.01v37.93S0,227.61,0,227.61v-109.72s87.14-11.58,87.14-11.58v20.6Z"/>
                <path class="cls-1" d="M202.21,200.73l-25.91,3.44-30.61-29.96-14.37,1.91v34.02s-20.01,2.66-20.01,2.66v-109.26s49.81-6.62,49.81-6.62c22.02-2.93,37.06,6.62,37.06,30.04v5.31c0,19.82-10.74,32.64-27.52,37.84l31.55,30.61ZM131.32,155.22l26.72-3.55c16.11-2.14,20.14-5.33,20.14-17.82v-3.12c0-12.49-4.03-14.6-20.14-12.46l-26.72,3.55v33.4Z"/>
                <path class="cls-1" d="M305.47,97.89l-67,8.91v30.44s67-8.91,67-8.91v20.76s-45.92,23.27-45.92,23.27l45.92-6.1v20.76s-87.14,11.58-87.14,11.58v-20.76s48.07-23.56,48.07-23.56l-48.07,6.39v-71.8s87.14-11.58,87.14-11.58v20.6Z"/>
                <path class="cls-1" d="M416.78,83.09l-66.99,8.9v30.44s66.99-8.9,66.99-8.9v20.76s-45.92,23.27-45.92,23.27l45.92-6.1v20.76s-87.14,11.58-87.14,11.58v-20.76s48.07-23.56,48.07-23.56l-48.07,6.39v-71.8s87.14-11.58,87.14-11.58v20.6Z"/>
              </g>
              <path class="cls-1" d="M572.14,151.56l-25.92,3.44-30.61-29.96-14.37,1.91v34.02s-20.01,2.66-20.01,2.66V54.39s49.81-6.62,49.81-6.62c22.02-2.93,37.05,6.63,37.05,30.04v5.31c0,19.82-10.74,32.64-27.52,37.84l31.56,30.61ZM501.25,106.04l26.72-3.55c16.12-2.14,20.14-5.33,20.14-17.82v-3.12c0-12.49-4.03-14.6-20.14-12.46l-26.72,3.55v33.4Z"/>
              <path class="cls-1" d="M661.57,51.02l-26.58,3.53v68.05s26.58-3.53,26.58-3.53v20.6s-73.31,9.74-73.31,9.74v-20.6s26.72-3.55,26.72-3.55V57.21s-26.72,3.55-26.72,3.55v-20.6s73.31-9.74,73.31-9.74v20.6Z"/>
              <path class="cls-1" d="M685.74,136.46v-20.76s13.43-1.79,13.43-1.79V46.33s-13.43,1.79-13.43,1.79v-20.76s60.83-8.09,60.83-8.09c20.94-2.94,37.05,13.49,37.05,37.84v23.41c0,24.35-15.98,45.04-36.92,47.83l-60.96,8.1ZM719.18,111.26l24.43-3.25c12.35-1.64,20.14-11.89,20.14-25.93v-21.23c0-14.05-7.92-22.05-20.14-20.42l-24.43,3.25v67.58Z"/>
              <path class="cls-1" d="M886.88,20.6l-67,8.91v30.44s67-8.91,67-8.91v20.76s-45.92,23.27-45.92,23.27l45.92-6.1v20.76s-87.14,11.58-87.14,11.58v-20.76s48.07-23.56,48.07-23.56l-48.07,6.39V11.58S886.88,0,886.88,0v20.6Z"/>
            </g>
          </g>
          <g>
            <path class="cls-1" d="M364.58,227.36l-20.24,2.69v9.19s18.21-2.42,18.21-2.42v6.27s-18.21,2.42-18.21,2.42v11.46s-6.08.81-6.08.81v-33.14s26.32-3.5,26.32-3.5v6.22Z"/>
            <path class="cls-1" d="M400.88,229.28v7.12c0,7.4-4.91,13.71-11.27,14.56l-8.88,1.18c-6.41.85-11.27-4.11-11.27-11.56v-7.12c0-7.4,4.87-13.66,11.27-14.51l8.88-1.18c6.41-.85,11.27,4.11,11.27,11.51ZM394.75,230.42c0-4.24-2.43-6.75-6.08-6.26l-7.02.93c-3.73.5-6.12,3.6-6.12,7.89v6.46c0,4.34,2.35,6.71,6.12,6.21l7.02-.93c3.73-.5,6.08-3.59,6.08-7.83v-6.46Z"/>
            <path class="cls-1" d="M433.2,245.16l-7.83,1.04-9.25-9.05-4.34.58v10.28s-6.04.8-6.04.8v-33s15.05-2,15.05-2c6.65-.88,11.19,2,11.19,9.07v1.6c0,5.99-3.24,9.86-8.31,11.43l9.53,9.25ZM411.79,231.41l8.07-1.07c4.87-.65,6.08-1.61,6.08-5.38v-.94c0-3.77-1.22-4.41-6.08-3.76l-8.07,1.07v10.09Z"/>
            <path class="cls-1" d="M453.89,222.56v6.46c0,4.34,2.35,6.71,6.12,6.21l7.02-.93c3.49-.46,5.72-3.12,6.04-7.17l6.16-.82c-.16,7.33-5.03,13.4-11.27,14.23l-8.88,1.18c-6.41.85-11.27-4.11-11.27-11.56v-7.12c0-7.4,4.87-13.66,11.27-14.51l8.88-1.18c6.41-.85,11.27,4.11,11.27,11.51v.14s-6.12.81-6.12.81c-.08-4.14-2.43-6.56-6.08-6.07l-7.02.93c-3.73.5-6.12,3.6-6.12,7.89Z"/>
            <path class="cls-1" d="M484.1,238.39v-33.19s5.68-.75,5.68-.75v33.19s-5.68.75-5.68.75ZM495.09,236.93l-5.31-32.48,5.27-.7,5.35,32.48-5.31.71ZM500.41,236.22l5.35-33.9,5.27-.7-5.31,33.9-5.31.71ZM511.03,234.81v-33.19s5.68-.75,5.68-.75v33.19s-5.68.75-5.68.75Z"/>
            <path class="cls-1" d="M553.01,209.05v7.12c0,7.4-4.91,13.71-11.27,14.56l-8.88,1.18c-6.41.85-11.27-4.11-11.27-11.56v-7.12c0-7.4,4.87-13.66,11.27-14.51l8.88-1.18c6.41-.85,11.27,4.11,11.27,11.51ZM546.89,210.2c0-4.24-2.43-6.75-6.08-6.26l-7.02.93c-3.73.5-6.12,3.6-6.12,7.89v6.46c0,4.34,2.35,6.71,6.12,6.21l7.02-.93c3.73-.5,6.08-3.59,6.08-7.83v-6.46Z"/>
            <path class="cls-1" d="M580.87,207.94l-6,.8v-1.65c0-.28-.08-2.35-2.76-2.27l-3.24.38-5.39.76h-.04c-1.13.3-1.38,1.6-.28,1.98l13.5,4.43c6.16,2.06,4.58,12.78-2.03,13.99l-9.04,1.2c-8.07.98-8.72-4.83-8.72-6.95v-2.22s6-.8,6-.8l.04,1.65c0,.28.04,2.35,2.72,2.28l3.24-.38,5.35-.76h.04c1.18-.3,1.38-1.65.32-1.98l-13.54-4.42c-6.37-2.08-4.5-13.12,2.51-14.05h.04s8.56-1.14,8.56-1.14c8.03-.97,8.72,4.83,8.72,6.95v2.22Z"/>
          </g>
        </g>
      </g>
    </g>
  </g>
</svg>